<?xml version="1.0" standalone="no"?>
<!DOCTYPE svg PUBLIC "-//W3C//DTD SVG 20010904//EN" "http://www.w3.org/TR/2001/REC-SVG-20010904/DTD/svg10.dtd">
<!-- Created using Krita: https://krita.org -->
<svg xmlns="http://www.w3.org/2000/svg" 
    xmlns:xlink="http://www.w3.org/1999/xlink"
    xmlns:krita="http://krita.org/namespaces/svg/krita"
    xmlns:sodipodi="http://sodipodi.sourceforge.net/DTD/sodipodi-0.dtd"
    width="65.76pt"
    height="62.16pt"
    viewBox="0 0 65.76 62.16">
<defs/>
<path id="shape0" transform="translate(21.96, 1.98)" fill="none" stroke="#000000" stroke-width="1.2" stroke-linecap="square" stroke-linejoin="bevel" d="M6 0L24.78 1.02L38.88 15.36L35.16 29.1L14.94 29.1L0 13.32L6 0" sodipodi:nodetypes="ccccccc"/><path id="shape1" transform="translate(2.46, 2.04)" fill="none" stroke="#000000" stroke-width="1.2" stroke-linecap="square" stroke-linejoin="bevel" d="M25.44 0L17.7 3.18L6 17.52L0 30.12L6.12 29.64L19.56 13.32L19.56 13.32" sodipodi:nodetypes="ccccccc"/><path id="shape2" transform="translate(8.4, 31.08)" fill="none" stroke="#000000" stroke-width="1.2" stroke-linecap="square" stroke-linejoin="bevel" d="M0 0.78L13.62 16.26L28.74 0" sodipodi:nodetypes="ccc"/><path id="shape3" transform="translate(57.18, 17.46)" fill="none" stroke="#000000" stroke-width="1.2" stroke-linecap="square" stroke-linejoin="bevel" d="M3.84 0L6.12 15.3L2.82 28.68L0 13.62" sodipodi:nodetypes="cccc"/><path id="shape4" transform="translate(2.28, 32.16)" fill="none" stroke="#000000" stroke-width="1.2" stroke-linecap="square" stroke-linejoin="bevel" d="M0 0L6.12 13.2L17.64 26.46L24.9 28.5L19.68 15.06" sodipodi:nodetypes="ccccc"/><path id="shape5" transform="translate(27.06, 45.66)" fill="none" stroke="#000000" stroke-width="1.2" stroke-linecap="square" stroke-linejoin="bevel" d="M0 14.7L19.26 14.4L33.06 0" sodipodi:nodetypes="ccc"/>
</svg>
