<?xml version="1.0" standalone="no"?>
<!DOCTYPE svg PUBLIC "-//W3C//DTD SVG 20010904//EN"
 "http://www.w3.org/TR/2001/REC-SVG-20010904/DTD/svg10.dtd">
<svg version="1.0" xmlns="http://www.w3.org/2000/svg"
 width="549.000000pt" height="549.000000pt" viewBox="0 0 549.000000 549.000000"
 preserveAspectRatio="xMidYMid meet">

<g transform="translate(0.000000,549.000000) scale(0.100000,-0.100000)"
fill="#000000" stroke="none">
<path d="M2580 5314 c-504 -60 -773 -141 -1114 -334 -305 -174 -521 -354 -744
-622 -244 -294 -444 -691 -536 -1063 -49 -199 -61 -319 -60 -595 1 -246 2
-260 32 -407 60 -287 188 -592 369 -881 27 -43 202 -271 257 -336 73 -85 336
-318 441 -391 302 -210 591 -343 900 -414 367 -85 808 -92 1150 -20 327 69
445 111 701 244 348 181 635 421 855 715 188 250 290 432 394 700 85 219 127
392 146 610 14 165 7 451 -16 610 -44 299 -196 683 -381 960 -237 356 -416
543 -734 767 -415 292 -899 446 -1440 457 -102 3 -201 2 -220 0z m538 -210
c118 -18 171 -30 332 -81 410 -129 696 -298 1003 -593 107 -103 232 -248 204
-237 -9 3 -67 14 -129 23 -88 13 -151 15 -283 11 -328 -12 -539 -88 -841 -302
-20 -15 -20 -14 -14 37 10 70 -5 287 -24 363 -62 249 -176 440 -398 671 -65
67 -118 124 -118 127 0 9 149 -2 268 -19z m-478 10 c0 -3 -40 -45 -88 -93
-109 -108 -160 -174 -258 -332 -84 -135 -144 -273 -169 -389 -9 -41 -19 -145
-22 -232 l-6 -156 -61 47 c-226 176 -445 256 -756 276 -84 6 -131 3 -239 -15
-74 -12 -146 -26 -159 -31 -34 -13 -44 -2 -28 29 23 43 212 242 318 335 206
180 484 340 752 433 134 47 350 102 461 119 93 13 255 19 255 9z m167 -172
c146 -122 302 -325 363 -473 51 -122 71 -220 77 -374 4 -104 1 -166 -11 -240
-19 -113 -37 -158 -123 -300 -84 -139 -232 -402 -243 -431 -11 -27 -45 -32
-74 -11 -16 12 -17 23 -7 158 18 227 24 632 13 742 -11 97 -48 247 -62 247
-14 0 -50 -147 -56 -231 -4 -48 -1 -269 6 -493 13 -425 12 -436 -29 -436 -20
0 -58 59 -221 345 -168 296 -200 392 -200 605 0 274 92 505 298 750 66 78 186
190 204 190 4 0 33 -22 65 -48z m-1305 -882 c157 -32 336 -118 470 -224 31
-25 91 -84 132 -132 79 -89 116 -148 251 -389 43 -77 98 -168 122 -203 23 -35
43 -66 42 -70 0 -4 -18 -22 -40 -41 l-39 -33 -82 53 c-46 28 -99 64 -118 79
-78 60 -530 358 -597 393 -73 38 -174 77 -200 77 -27 0 -11 -27 55 -90 67 -64
336 -249 732 -502 115 -74 160 -114 160 -145 l0 -24 -287 3 c-278 3 -292 5
-393 32 -138 36 -324 126 -420 203 -196 156 -350 389 -408 618 -20 81 -25 126
-26 235 l-1 134 79 18 c181 42 388 44 568 8z m2901 20 c51 -6 126 -19 167 -29
l75 -18 3 -59 c6 -113 -24 -297 -71 -430 -72 -202 -274 -453 -457 -566 -199
-124 -488 -189 -765 -174 -223 13 -255 17 -255 35 0 20 115 105 340 251 343
222 505 335 572 398 37 35 68 69 68 75 0 6 -18 8 -45 5 -101 -12 -354 -164
-874 -525 -87 -61 -126 -83 -129 -73 -3 8 -16 25 -30 39 l-26 25 54 101 c162
304 295 508 397 610 258 258 603 376 976 335z m-3693 -159 c0 -99 28 -267 61
-366 17 -49 57 -141 90 -203 32 -63 59 -115 59 -117 0 -2 -28 -8 -63 -14 -66
-11 -168 -44 -250 -80 -39 -17 -155 -92 -278 -180 -17 -12 -19 -11 -19 10 0
13 9 71 19 129 58 315 155 572 319 838 52 84 62 82 62 -17z m4142 12 c93 -152
164 -303 219 -463 48 -137 107 -381 115 -466 l6 -79 -48 45 c-143 133 -319
221 -499 250 -38 6 -70 12 -71 13 -1 1 21 40 47 87 94 162 151 362 175 613 3
31 9 57 13 57 5 0 24 -26 43 -57z m-3750 -909 c61 -57 215 -166 344 -242 30
-18 33 -22 14 -18 -65 14 -193 17 -386 8 -209 -10 -254 -18 -254 -47 0 -45
179 -70 410 -57 85 5 156 8 158 7 1 -1 -30 -23 -70 -48 -81 -52 -215 -167
-256 -221 -15 -19 -32 -37 -38 -40 -17 -7 -202 30 -268 53 -107 38 -215 109
-323 215 -57 54 -103 105 -103 112 0 14 107 115 192 181 106 81 247 139 377
152 136 15 127 17 203 -55z m3621 29 c128 -42 266 -135 390 -260 l58 -59 -83
-80 c-46 -44 -112 -101 -147 -128 -102 -79 -266 -143 -407 -161 l-50 -6 -43
55 c-49 64 -143 143 -252 213 l-77 48 202 -3 c161 -3 214 -1 263 12 87 22 138
45 127 56 -22 22 -213 43 -404 44 -182 1 -199 -1 -248 -22 -30 -12 -58 -19
-64 -16 -5 4 46 34 114 68 144 71 210 119 293 209 l60 66 95 -5 c62 -4 122
-15 173 -31z m-1863 -105 c130 -78 159 -245 62 -360 -34 -40 -116 -78 -169
-78 -56 0 -143 33 -176 68 -108 113 -78 316 56 381 29 14 63 20 107 21 57 0
73 -4 120 -32z m-477 -285 c4 -2 7 -19 7 -36 0 -37 8 -30 -172 -137 -202 -120
-296 -180 -362 -229 -33 -26 -108 -78 -166 -116 -118 -79 -250 -198 -250 -226
0 -24 3 -24 85 2 51 15 113 51 249 143 390 264 632 429 647 443 15 13 21 10
58 -24 l41 -38 -62 -100 c-33 -55 -98 -167 -144 -250 -45 -82 -97 -177 -116
-210 -41 -74 -221 -259 -303 -310 -96 -61 -262 -135 -365 -163 -81 -21 -116
-25 -235 -25 -139 1 -318 25 -410 55 l-40 13 3 85 c10 249 68 443 187 627 78
119 124 173 209 242 190 155 383 235 629 260 86 9 493 4 510 -6z m1327 -9 c47
-8 118 -24 158 -35 316 -85 626 -406 726 -753 30 -100 56 -269 56 -354 l0 -61
-67 -21 c-87 -26 -249 -50 -338 -50 -364 0 -755 212 -949 514 -29 44 -88 146
-131 226 -43 80 -103 187 -133 238 l-55 94 35 35 35 35 109 -75 c205 -141 666
-448 715 -478 27 -16 77 -38 111 -49 116 -38 126 -23 41 60 -92 89 -508 374
-758 520 -170 99 -183 110 -167 144 l11 26 168 3 c217 4 328 -1 433 -19z
m1445 -323 c-45 -215 -111 -406 -202 -584 -53 -105 -141 -247 -152 -247 -5 0
-11 44 -15 98 -15 218 -67 403 -151 537 -31 48 -54 89 -53 89 2 1 32 8 68 15
87 17 226 72 297 117 88 56 190 140 210 175 l18 31 3 -53 c2 -29 -8 -106 -23
-178z m-4685 77 c36 -25 90 -59 120 -76 61 -33 265 -102 305 -102 14 0 25 -3
25 -6 0 -3 -20 -38 -44 -77 -89 -148 -147 -347 -162 -554 -4 -51 -10 -93 -15
-93 -11 0 -110 162 -165 271 -111 221 -200 509 -211 684 l-5 80 43 -41 c24
-23 73 -61 109 -86z m2214 -43 c18 -14 18 -24 7 -267 -20 -458 -13 -644 30
-785 23 -75 28 -73 53 22 32 126 38 272 25 654 -11 345 -11 365 6 377 12 9 23
10 36 4 47 -26 314 -485 358 -616 39 -117 55 -257 48 -403 -9 -183 -54 -320
-163 -493 -60 -96 -209 -256 -292 -312 l-42 -29 -42 29 c-79 54 -244 226 -300
314 -65 101 -123 232 -146 332 -24 105 -23 388 2 478 29 108 215 468 318 618
20 29 40 61 43 72 7 23 32 25 59 5z m-560 -1205 c20 -85 103 -266 169 -368 59
-91 208 -264 286 -331 34 -29 59 -56 56 -59 -3 -3 -35 -4 -73 -3 -182 6 -401
49 -592 116 -322 112 -465 191 -761 422 -114 89 -369 336 -369 358 0 14 -1 14
150 -25 121 -31 324 -38 462 -16 118 20 250 62 358 114 85 41 235 139 265 172
l20 22 6 -163 c3 -101 13 -193 23 -239z m1500 244 c188 -100 385 -153 601
-161 129 -4 165 -2 254 16 57 12 121 31 143 42 96 49 43 -23 -157 -216 -236
-227 -394 -339 -640 -455 -213 -101 -432 -169 -673 -209 -149 -25 -302 -37
-302 -23 0 5 39 43 86 83 85 73 215 227 289 343 112 175 165 376 165 620 l0
116 76 -56 c42 -31 113 -76 158 -100z"/>
</g>
</svg>
